<?xml version="1.0" encoding="UTF-8" standalone="no" ?>
<!DOCTYPE svg PUBLIC "-//W3C//DTD SVG 1.1//EN" "http://www.w3.org/Graphics/SVG/1.1/DTD/svg11.dtd">
<svg xmlns="http://www.w3.org/2000/svg" xmlns:xlink="http://www.w3.org/1999/xlink" version="1.1" width="1in" height="1in" viewBox="0 0 72 72" xml:space="preserve">
<desc>Created with Fabric.js 5.3.0</desc>
<defs>
</defs>
<g transform="matrix(1 0 0 1 36 36)" id="hjnQItTwjIQMVl4vuUeTR"  >
<path style="stroke: rgb(0,0,0); stroke-width: 0.36; stroke-dasharray: none; stroke-linecap: butt; stroke-dashoffset: 0; stroke-linejoin: miter; stroke-miterlimit: 4; fill: rgb(255,255,255); fill-opacity: 0; fill-rule: nonzero; opacity: 1;"  transform=" translate(0, 0)" d="M -13.41274 5.59392 L -13.41274 5.59392 C -13.41274 -0.5849500000000001 -8.40377 -5.59392 -2.2249 -5.59392 L 2.2249100000000004 -5.59392 L 2.2249100000000004 -5.59392 C 8.403780000000001 -5.59392 13.412749999999999 -0.5849500000000001 13.412749999999999 5.59392 L 13.412749999999999 5.59392" stroke-linecap="round" />
</g>
<g transform="matrix(0.4694715628 0.8829475929 -0.8829475929 0.4694715628 40.8249699292 36)" id="Dqx1orxSpri2bIVWeu3rT"  >
<g style=""   >
		<g transform="matrix(1 0 0 1 0 1.9944598338)" id="XRt6NkAhTaXNjRpLxuWrL"  >
<path style="stroke: rgb(0,0,0); stroke-width: 0.36; stroke-dasharray: none; stroke-linecap: butt; stroke-dashoffset: 0; stroke-linejoin: miter; stroke-miterlimit: 4; fill: rgb(172,172,172); fill-rule: nonzero; opacity: 1;"  transform=" translate(0, 0)" d="M 1.44598 5.88366 L -1.44599 5.88366 L -1.44599 -5.88365 L 1.44598 -5.88365 z" stroke-linecap="round" />
</g>
		<g transform="matrix(1 0 0 1 0 -5.8240720222)" id="OwRnYYJ94E7BVGCuTbqJi"  >
<path style="stroke: rgb(0,0,0); stroke-width: 0.36; stroke-dasharray: none; stroke-linecap: butt; stroke-dashoffset: 0; stroke-linejoin: miter; stroke-miterlimit: 4; fill: rgb(172,172,172); fill-rule: nonzero; opacity: 1;"  transform=" translate(0, 0)" d="M -3.34072 2.05404 L 3.34072 2.05404 L 3.34072 -2.0540499999999997 L 1.6259800000000002 -2.0540499999999997 L 1.6259800000000002 -0.05958999999999981 L -1.6259899999999998 -0.05958999999999981 L -1.6259899999999998 -2.0540499999999997 L -3.3407299999999998 -2.0540499999999997 z" stroke-linecap="round" />
</g>
		<g transform="matrix(0.23 0 0 0.1834677771 0 -3.5900277008)" id="DQqYikaVxZQfkapMgORgj"  >
<path style="stroke: rgb(13,182,36); stroke-width: 0; stroke-dasharray: none; stroke-linecap: butt; stroke-dashoffset: 0; stroke-linejoin: miter; stroke-miterlimit: 4; fill: rgb(172,172,172); fill-rule: nonzero; opacity: 1;"  transform=" translate(0, 0)" d="M -4.98615 -4.98615 L 4.98615 -4.98615 L 4.98615 4.98615 L -4.98615 4.98615 z" stroke-linecap="round" />
</g>
</g>
</g>
</svg>