<?xml version="1.0" encoding="UTF-8" standalone="no" ?>
<!DOCTYPE svg PUBLIC "-//W3C//DTD SVG 1.1//EN" "http://www.w3.org/Graphics/SVG/1.1/DTD/svg11.dtd">
<svg xmlns="http://www.w3.org/2000/svg" xmlns:xlink="http://www.w3.org/1999/xlink" version="1.1" width="1in" height="1in" viewBox="0 0 72 72" xml:space="preserve">
<desc>Created with Fabric.js 5.3.0</desc>
<defs>
</defs>
<g transform="matrix(1 0 0 1 36 36.09)" id="XdaKHV5q7CRhollowyats"  >
<path style="stroke: rgb(0,0,0); stroke-width: 0.36; stroke-dasharray: none; stroke-linecap: butt; stroke-dashoffset: 0; stroke-linejoin: miter; stroke-miterlimit: 4; fill: rgb(255,255,255); fill-rule: nonzero; opacity: 1;"  transform=" translate(-0.000005, 0.000005)" d="M -15.10803 9.77285 L -15.10803 -9.77286 L 15.108039999999999 -9.77286 L 15.108039999999999 9.77285 z" stroke-linecap="round" />
</g>
<g transform="matrix(1 0 0 1 41.5346260388 36)" id="Yq-Q-hHwI7AXOAFrq5iZO"  >
<path style="stroke: rgb(0,0,0); stroke-width: 0.36; stroke-dasharray: none; stroke-linecap: butt; stroke-dashoffset: 0; stroke-linejoin: miter; stroke-miterlimit: 4; fill: rgb(255,255,255); fill-opacity: 0; fill-rule: nonzero; opacity: 1;"  transform=" translate(0, -0.000005)" d="M 0 -9.86285 L 0 9.86286" stroke-linecap="round" />
</g>
<g transform="matrix(1 0 0 1 48.6925207756 36.7479222576)" id="UpxcIhEq0VW7YXiMh65OO"  >
<path style="stroke: rgb(0,0,0); stroke-width: 0.36; stroke-dasharray: none; stroke-linecap: butt; stroke-dashoffset: 0; stroke-linejoin: miter; stroke-miterlimit: 4; fill: rgb(255,255,255); fill-opacity: 0; fill-rule: nonzero; opacity: 1;"  transform=" translate(0, -0.000005)" d="M 0 3.83934 L 0 -3.8393300000000004" stroke-linecap="round" />
</g>
<g transform="matrix(1 0 0 1 48.6925207756 32.3199733657)" id="FpLbA9QkRRIO3hCLAJ098"  >
<path style="stroke: rgb(0,0,0); stroke-width: 0.36; stroke-dasharray: none; stroke-linecap: butt; stroke-dashoffset: 0; stroke-linejoin: miter; stroke-miterlimit: 4; fill: rgb(0,0,0); fill-rule: nonzero; opacity: 1;"  transform=" translate(0, 0.000005)" d="M -0.94737 0.70778 L 0.94737 0.70778 L 0.94737 -0.70779 L -0.94737 -0.70779 z" stroke-linecap="round" />
</g>
<g transform="matrix(0.4245921511 0 0 0.4245921511 44.5426962883 38.193506565)" id="YvM9HUfEKkp0a70t5lh_j"  >
<path style="stroke: rgb(0,0,0); stroke-width: 0.72; stroke-dasharray: none; stroke-linecap: butt; stroke-dashoffset: 0; stroke-linejoin: miter; stroke-miterlimit: 4; fill: none; fill-rule: nonzero; opacity: 1;"  transform=" translate(0, 0)" d="M 0 -4.98615 C 2.75235 -4.98615 4.98615 -2.7523500000000003 4.98615 0 C 4.98615 2.75235 2.7523500000000003 4.98615 0 4.98615 C -2.75235 4.98615 -4.98615 2.7523500000000003 -4.98615 0 C -4.98615 -2.75235 -2.7523500000000003 -4.98615 0 -4.98615 z" stroke-linecap="round" />
</g>
<g transform="matrix(1 0 0 1 44.0109603325 38.4928751661)" id="B8PxnRH61nOMDInGxllia"  >
<path style="stroke: rgb(0,0,0); stroke-width: 0.36; stroke-dasharray: none; stroke-linecap: butt; stroke-dashoffset: 0; stroke-linejoin: miter; stroke-miterlimit: 4; fill: rgb(255,255,255); fill-opacity: 0; fill-rule: nonzero; opacity: 1;"  transform=" translate(0, 0)" d="M 0.53174 -0.29937 L -0.5317299999999999 0.29937" stroke-linecap="round" />
</g>
<g transform="matrix(1.3001680188 0 0 1 34.4090429309 22.701565097)" id="sxPWmI3a9SDJLX_AxtcA3"  >
<path style="stroke: rgb(0,0,0); stroke-width: 0.36; stroke-dasharray: none; stroke-linecap: butt; stroke-dashoffset: 0; stroke-linejoin: miter; stroke-miterlimit: 4; fill: rgb(220,180,144); fill-rule: nonzero; opacity: 1;"  transform=" translate(0, 0)" d="M -4.03878 3.55475 L -4.03878 -3.55475 L 4.03878 -3.55475 L 4.03878 3.55475 z" stroke-linecap="round" />
</g>
<g transform="matrix(1 0 0 1 37.8795418528 22.701565097)" id="_hmijXYSWxw-Cu-SRRf1M"  >
<path style="stroke: rgb(0,0,0); stroke-width: 0.36; stroke-dasharray: none; stroke-linecap: butt; stroke-dashoffset: 0; stroke-linejoin: miter; stroke-miterlimit: 4; fill: rgb(255,255,255); fill-rule: nonzero; opacity: 1;"  transform=" translate(0, 0)" d="M 0 -3.49517 L 0 3.4951600000000003" stroke-linecap="round" />
</g>
<g transform="matrix(1.3001680188 0 0 1 31.6319376942 22.701565097)" id="t68SzTYmiGzlaDuPF4WiF"  >
<path style="stroke: rgb(0,0,0); stroke-width: 0.36; stroke-dasharray: none; stroke-linecap: butt; stroke-dashoffset: 0; stroke-linejoin: miter; stroke-miterlimit: 4; fill: rgb(220,180,144); fill-rule: nonzero; opacity: 1;"  transform=" translate(0, 0)" d="M -4.03878 3.55475 L -4.03878 -3.55475 L 4.03878 -3.55475 L 4.03878 3.55475 z" stroke-linecap="round" />
</g>
<g transform="matrix(1 0 0 1 35.1024366161 22.701565097)" id="2Gmkt-mQrwG6_K7B5PoFl"  >
<path style="stroke: rgb(0,0,0); stroke-width: 0.36; stroke-dasharray: none; stroke-linecap: butt; stroke-dashoffset: 0; stroke-linejoin: miter; stroke-miterlimit: 4; fill: rgb(255,255,255); fill-rule: nonzero; opacity: 1;"  transform=" translate(0, 0.000005)" d="M 0 -3.49517 L 0 3.4951600000000003" stroke-linecap="round" />
</g>
</svg>